<?xml version="1.0" encoding="UTF-8" standalone="no"?>
<!-- Created with Inkscape (http://www.inkscape.org/) -->

<svg
   xmlns:dc="http://purl.org/dc/elements/1.1/"
   xmlns:cc="http://creativecommons.org/ns#"
   xmlns:rdf="http://www.w3.org/1999/02/22-rdf-syntax-ns#"
   xmlns:svg="http://www.w3.org/2000/svg"
   xmlns="http://www.w3.org/2000/svg"
   xmlns:sodipodi="http://sodipodi.sourceforge.net/DTD/sodipodi-0.dtd"
   xmlns:inkscape="http://www.inkscape.org/namespaces/inkscape"
   id="svg2"
   version="1.1"
   inkscape:version="0.48.4 r9939"
   width="811.7875"
   height="820.6875"
   xml:space="preserve"
   sodipodi:docname="okf-logo-small.svg"><metadata
     id="metadata8"><rdf:RDF><cc:Work
         rdf:about=""><dc:format>image/svg+xml</dc:format><dc:type
           rdf:resource="http://purl.org/dc/dcmitype/StillImage" /><dc:title></dc:title></cc:Work></rdf:RDF></metadata><defs
     id="defs6" /><sodipodi:namedview
     pagecolor="#ffffff"
     bordercolor="#666666"
     borderopacity="1"
     objecttolerance="10"
     gridtolerance="10"
     guidetolerance="10"
     inkscape:pageopacity="0"
     inkscape:pageshadow="2"
     inkscape:window-width="1366"
     inkscape:window-height="709"
     id="namedview4"
     showgrid="false"
     inkscape:zoom="0.14378189"
     inkscape:cx="-1030.3636"
     inkscape:cy="484.57159"
     inkscape:window-x="0"
     inkscape:window-y="27"
     inkscape:window-maximized="1"
     inkscape:current-layer="g10" /><g
     id="g10"
     inkscape:groupmode="layer"
     inkscape:label="ink_ext_XXXXXX"
     transform="matrix(1.25,0,0,-1.25,0,820.6875)"><path
       inkscape:connector-curvature="0"
       id="path14"
       style="fill:#000000;fill-opacity:1;fill-rule:nonzero;stroke:none"
       d="M 490.113,486.423 473.251,499.02 577.515,638.621 594.378,626.025 490.113,486.423" /><path
       inkscape:connector-curvature="0"
       id="path16"
       style="fill:#000000;fill-opacity:1;fill-rule:nonzero;stroke:none"
       d="M 458.384,508.199 439.542,517.582 476.957,592.711 495.798,583.327 458.384,508.199" /><path
       inkscape:connector-curvature="0"
       id="path18"
       style="fill:#000000;fill-opacity:1;fill-rule:nonzero;stroke:none"
       d="M 423.273,523.955 403.058,529.826 439.853,656.553 460.069,650.685 423.273,523.955" /><path
       inkscape:connector-curvature="0"
       id="path20"
       style="fill:#000000;fill-opacity:1;fill-rule:nonzero;stroke:none"
       d="M 385.918,533.189 364.977,535.358 373.605,618.815 394.55,616.647 385.918,533.189" /><path
       inkscape:connector-curvature="0"
       id="path22"
       style="fill:#000000;fill-opacity:1;fill-rule:nonzero;stroke:none"
       d="M 326.522,534 319.338,627.738 340.324,629.344 347.509,535.606 326.522,534" /><path
       inkscape:connector-curvature="0"
       id="path24"
       style="fill:#000000;fill-opacity:1;fill-rule:nonzero;stroke:none"
       d="M 288.925,525.799 272.631,588.048 292.993,593.379 309.283,531.131 288.925,525.799" /><path
       inkscape:connector-curvature="0"
       id="path26"
       style="fill:#000000;fill-opacity:1;fill-rule:nonzero;stroke:none"
       d="M 253.4,511.015 235.2,550.123 254.277,559.004 272.483,519.896 253.4,511.015" /><path
       inkscape:connector-curvature="0"
       id="path28"
       style="fill:#000000;fill-opacity:1;fill-rule:nonzero;stroke:none"
       d="M 221.077,490.122 211.322,503.94 228.515,516.082 238.269,502.265 221.077,490.122" /><path
       inkscape:connector-curvature="0"
       id="path30"
       style="fill:#000000;fill-opacity:1;fill-rule:nonzero;stroke:none"
       d="M 193.005,463.797 143.645,512.26 158.393,527.285 207.753,478.821 193.005,463.797" /><path
       inkscape:connector-curvature="0"
       id="path32"
       style="fill:#000000;fill-opacity:1;fill-rule:nonzero;stroke:none"
       d="M 170.088,432.885 93.7063,485.262 105.537,502.67 181.922,450.294 170.088,432.885" /><path
       inkscape:connector-curvature="0"
       id="path34"
       style="fill:#000000;fill-opacity:1;fill-rule:nonzero;stroke:none"
       d="M 153.06,398.38 104.959,419.7 113.488,438.941 161.593,417.619 153.06,398.38" /><path
       inkscape:connector-curvature="0"
       id="path36"
       style="fill:#000000;fill-opacity:1;fill-rule:nonzero;stroke:none"
       d="M 0,395.9 142.47,361.384 147.426,381.838 4.95859,416.354 0,395.9" /><path
       inkscape:connector-curvature="0"
       id="path38"
       style="fill:#000000;fill-opacity:1;fill-rule:nonzero;stroke:none"
       d="M 138.652,323.09 32.3605,329.28 33.5879,350.296 139.876,344.104 138.652,323.09" /><path
       inkscape:connector-curvature="0"
       id="path40"
       style="fill:#000000;fill-opacity:1;fill-rule:nonzero;stroke:none"
       d="M 38.7156,272.173 36.1711,293.065 139.189,305.625 141.735,284.738 38.7156,272.173" /><path
       inkscape:connector-curvature="0"
       id="path42"
       style="fill:#000000;fill-opacity:1;fill-rule:nonzero;stroke:none"
       d="M 128.568,240.399 122.33,260.499 145.379,267.649 151.612,247.55 128.568,240.399" /><path
       inkscape:connector-curvature="0"
       id="path44"
       style="fill:#000000;fill-opacity:1;fill-rule:nonzero;stroke:none"
       d="M 90.5422,172.361 80.8152,191.029 158.246,231.383 167.974,212.716 90.5422,172.361" /><path
       inkscape:connector-curvature="0"
       id="path46"
       style="fill:#000000;fill-opacity:1;fill-rule:nonzero;stroke:none"
       d="M 115.922,123.656 103.019,140.285 177.392,197.992 190.296,181.365 115.922,123.656" /><path
       inkscape:connector-curvature="0"
       id="path48"
       style="fill:#000000;fill-opacity:1;fill-rule:nonzero;stroke:none"
       d="M 156.565,86.2141 140.897,100.27 202.189,168.563 217.852,154.507 156.565,86.2141" /><path
       inkscape:connector-curvature="0"
       id="path50"
       style="fill:#000000;fill-opacity:1;fill-rule:nonzero;stroke:none"
       d="M 227.56,96.927 209.631,107.964 231.838,144.039 249.763,133.003 227.56,96.927" /><path
       inkscape:connector-curvature="0"
       id="path52"
       style="fill:#000000;fill-opacity:1;fill-rule:nonzero;stroke:none"
       d="M 255.004,40.7219 235.397,48.3789 265.394,125.197 285.003,117.537 255.004,40.7219" /><path
       inkscape:connector-curvature="0"
       id="path54"
       style="fill:#000000;fill-opacity:1;fill-rule:nonzero;stroke:none"
       d="M 307.936,34.3301 287.275,38.3641 301.772,112.645 322.434,108.613 307.936,34.3301" /><path
       inkscape:connector-curvature="0"
       id="path56"
       style="fill:#000000;fill-opacity:1;fill-rule:nonzero;stroke:none"
       d="M 360.155,53.8801 339.108,54.1621 339.81,106.796 360.854,106.519 360.155,53.8801" /><path
       inkscape:connector-curvature="0"
       id="path58"
       style="fill:#000000;fill-opacity:1;fill-rule:nonzero;stroke:none"
       d="M 395.122,7.45117 378.276,107.833 399.038,111.32 415.88,10.9379 395.122,7.45117" /><path
       inkscape:connector-curvature="0"
       id="path60"
       style="fill:#000000;fill-opacity:1;fill-rule:nonzero;stroke:none"
       d="M 436.785,57.8711 415.945,115.723 435.746,122.854 456.585,65.0059 436.785,57.8711" /><path
       inkscape:connector-curvature="0"
       id="path62"
       style="fill:#000000;fill-opacity:1;fill-rule:nonzero;stroke:none"
       d="M 451.601,130.203 527.94,0 546.152,10.559 469.807,140.759 451.601,130.203" /><path
       inkscape:connector-curvature="0"
       id="path64"
       style="fill:#000000;fill-opacity:1;fill-rule:nonzero;stroke:none"
       d="M 496.139,138.424 484.5,150.366 499.71,164.919 511.35,152.983 496.139,138.424" /><path
       inkscape:connector-curvature="0"
       id="path66"
       style="fill:#000000;fill-opacity:1;fill-rule:nonzero;stroke:none"
       d="M 564.856,133.913 512.375,176.914 525.719,193.197 578.198,150.196 564.856,133.913" /><path
       inkscape:connector-curvature="0"
       id="path68"
       style="fill:#000000;fill-opacity:1;fill-rule:nonzero;stroke:none"
       d="M 589.159,177.873 535.559,207.639 545.772,226.039 599.376,196.276 589.159,177.873" /><path
       inkscape:connector-curvature="0"
       id="path70"
       style="fill:#000000;fill-opacity:1;fill-rule:nonzero;stroke:none"
       d="M 578.765,233.214 552.871,242.007 559.637,261.942 585.529,253.149 578.765,233.214" /><path
       inkscape:connector-curvature="0"
       id="path72"
       style="fill:#000000;fill-opacity:1;fill-rule:nonzero;stroke:none"
       d="M 644.893,266.827 563.773,278.912 566.874,299.732 647.993,287.651 644.893,266.827" /><path
       inkscape:connector-curvature="0"
       id="path74"
       style="fill:#000000;fill-opacity:1;fill-rule:nonzero;stroke:none"
       d="M 567.912,317.177 567.244,338.215 619.299,339.861 619.966,318.818 567.912,317.177" /><path
       inkscape:connector-curvature="0"
       id="path76"
       style="fill:#000000;fill-opacity:1;fill-rule:nonzero;stroke:none"
       d="M 565.15,355.559 560.742,376.14 625.103,389.941 629.517,369.36 565.15,355.559" /><path
       inkscape:connector-curvature="0"
       id="path78"
       style="fill:#000000;fill-opacity:1;fill-rule:nonzero;stroke:none"
       d="M 555.583,392.838 547.566,412.298 589.089,429.402 597.102,409.944 555.583,392.838" /><path
       inkscape:connector-curvature="0"
       id="path80"
       style="fill:#000000;fill-opacity:1;fill-rule:nonzero;stroke:none"
       d="M 539.511,427.799 528.148,445.522 638.063,516.006 649.426,498.284 539.511,427.799" /><path
       inkscape:connector-curvature="0"
       id="path82"
       style="fill:#000000;fill-opacity:1;fill-rule:nonzero;stroke:none"
       d="M 517.452,459.336 503.109,474.736 519.719,490.201 534.057,474.801 517.452,459.336" /><path
       inkscape:connector-curvature="0"
       id="path84"
       style="fill:#000000;fill-opacity:1;fill-rule:nonzero;stroke:none"
       d="M 430.911,416.746 422.841,423.501 428.372,430.05 436.441,423.299 432.543,418.634 430.911,416.746" /><path
       inkscape:connector-curvature="0"
       id="path86"
       style="fill:#000000;fill-opacity:1;fill-rule:nonzero;stroke:none"
       d="M 402.675,408.089 393.258,412.779 407.538,441.447 416.953,436.752 402.675,408.089" /><path
       inkscape:connector-curvature="0"
       id="path88"
       style="fill:#000000;fill-opacity:1;fill-rule:nonzero;stroke:none"
       d="M 390.098,428.516 379.991,431.447 385.14,449.19 395.246,446.258 390.098,428.516" /><path
       inkscape:connector-curvature="0"
       id="path90"
       style="fill:#000000;fill-opacity:1;fill-rule:nonzero;stroke:none"
       d="M 368.92,420.071 358.447,421.15 361.722,452.81 372.192,451.728 368.92,420.071" /><path
       inkscape:connector-curvature="0"
       id="path92"
       style="fill:#000000;fill-opacity:1;fill-rule:nonzero;stroke:none"
       d="M 340.273,422.893 338.03,452.185 348.522,452.993 350.767,423.7 340.273,422.893" /><path
       inkscape:connector-curvature="0"
       id="path94"
       style="fill:#000000;fill-opacity:1;fill-rule:nonzero;stroke:none"
       d="M 324.256,411.346 314.832,447.341 325.018,450.006 334.438,414.011 324.256,411.346" /><path
       inkscape:connector-curvature="0"
       id="path96"
       style="fill:#000000;fill-opacity:1;fill-rule:nonzero;stroke:none"
       d="M 311.141,399.172 292.869,438.437 302.414,442.88 320.687,403.607 311.141,399.172" /><path
       inkscape:connector-curvature="0"
       id="path98"
       style="fill:#000000;fill-opacity:1;fill-rule:nonzero;stroke:none"
       d="M 304.941,379.882 272.851,425.756 281.447,431.825 313.542,385.956 304.941,379.882" /><path
       inkscape:connector-curvature="0"
       id="path100"
       style="fill:#000000;fill-opacity:1;fill-rule:nonzero;stroke:none"
       d="M 281.244,384.344 255.422,409.701 262.796,417.211 288.617,391.854 281.244,384.344" /><path
       inkscape:connector-curvature="0"
       id="path102"
       style="fill:#000000;fill-opacity:1;fill-rule:nonzero;stroke:none"
       d="M 267.801,372.682 241.138,390.798 247.049,399.502 273.714,381.387 267.801,372.682" /><path
       inkscape:connector-curvature="0"
       id="path104"
       style="fill:#000000;fill-opacity:1;fill-rule:nonzero;stroke:none"
       d="M 268.455,352.798 230.458,369.64 234.72,379.263 272.72,362.422 268.455,352.798" /><path
       inkscape:connector-curvature="0"
       id="path106"
       style="fill:#000000;fill-opacity:1;fill-rule:nonzero;stroke:none"
       d="M 238.242,343.4 223.726,346.917 226.206,357.148 240.723,353.628 238.242,343.4" /><path
       inkscape:connector-curvature="0"
       id="path108"
       style="fill:#000000;fill-opacity:1;fill-rule:nonzero;stroke:none"
       d="M 247.422,321.834 221.155,323.362 221.77,333.862 248.037,332.338 247.422,321.834" /><path
       inkscape:connector-curvature="0"
       id="path110"
       style="fill:#000000;fill-opacity:1;fill-rule:nonzero;stroke:none"
       d="M 222.841,299.718 221.566,310.17 248.498,313.458 249.773,303.005 222.841,299.718" /><path
       inkscape:connector-curvature="0"
       id="path112"
       style="fill:#000000;fill-opacity:1;fill-rule:nonzero;stroke:none"
       d="M 228.718,276.766 225.6,286.815 276.639,302.453 279.756,292.405 228.718,276.766" /><path
       inkscape:connector-curvature="0"
       id="path114"
       style="fill:#000000;fill-opacity:1;fill-rule:nonzero;stroke:none"
       d="M 238.604,255.226 233.735,264.558 261.699,279.134 266.567,269.805 238.604,255.226" /><path
       inkscape:connector-curvature="0"
       id="path116"
       style="fill:#000000;fill-opacity:1;fill-rule:nonzero;stroke:none"
       d="M 252.167,235.799 245.718,244.117 269.318,262.425 275.769,254.107 252.167,235.799" /><path
       inkscape:connector-curvature="0"
       id="path118"
       style="fill:#000000;fill-opacity:1;fill-rule:nonzero;stroke:none"
       d="M 268.984,219.102 261.152,226.129 281.769,249.106 289.598,242.076 268.984,219.102" /><path
       inkscape:connector-curvature="0"
       id="path120"
       style="fill:#000000;fill-opacity:1;fill-rule:nonzero;stroke:none"
       d="M 288.519,205.683 279.553,211.199 302.23,248.036 311.197,242.519 288.519,205.683" /><path
       inkscape:connector-curvature="0"
       id="path122"
       style="fill:#000000;fill-opacity:1;fill-rule:nonzero;stroke:none"
       d="M 310.131,195.964 300.327,199.788 312.176,230.134 321.981,226.307 310.131,195.964" /><path
       inkscape:connector-curvature="0"
       id="path124"
       style="fill:#000000;fill-opacity:1;fill-rule:nonzero;stroke:none"
       d="M 333.126,190.25 322.796,192.269 329.606,227.145 339.937,225.126 333.126,190.25" /><path
       inkscape:connector-curvature="0"
       id="path126"
       style="fill:#000000;fill-opacity:1;fill-rule:nonzero;stroke:none"
       d="M 356.778,188.749 346.256,188.889 346.809,230.392 357.332,230.252 356.778,188.749" /><path
       inkscape:connector-curvature="0"
       id="path128"
       style="fill:#000000;fill-opacity:1;fill-rule:nonzero;stroke:none"
       d="M 369.942,189.749 365.447,216.562 375.823,218.303 380.317,191.487 369.942,189.749" /><path
       inkscape:connector-curvature="0"
       id="path130"
       style="fill:#000000;fill-opacity:1;fill-rule:nonzero;stroke:none"
       d="M 393.088,194.83 379.513,232.449 389.418,236.019 402.992,198.395 393.088,194.83" /><path
       inkscape:connector-curvature="0"
       id="path132"
       style="fill:#000000;fill-opacity:1;fill-rule:nonzero;stroke:none"
       d="M 414.957,203.952 409.973,212.559 419.082,217.829 424.067,209.225 414.957,203.952" /><path
       inkscape:connector-curvature="0"
       id="path134"
       style="fill:#000000;fill-opacity:1;fill-rule:nonzero;stroke:none"
       d="M 434.846,216.834 397.252,260.902 405.269,267.722 442.867,223.651 434.846,216.834" /><path
       inkscape:connector-curvature="0"
       id="path136"
       style="fill:#000000;fill-opacity:1;fill-rule:nonzero;stroke:none"
       d="M 452.116,233.071 424.091,256.036 430.764,264.175 458.79,241.207 452.116,233.071" /><path
       inkscape:connector-curvature="0"
       id="path138"
       style="fill:#000000;fill-opacity:1;fill-rule:nonzero;stroke:none"
       d="M 466.208,252.121 432.838,270.661 437.946,279.861 471.321,261.32 466.208,252.121" /><path
       inkscape:connector-curvature="0"
       id="path140"
       style="fill:#000000;fill-opacity:1;fill-rule:nonzero;stroke:none"
       d="M 476.675,273.377 429.692,289.545 433.079,299.513 480.064,283.344 476.675,273.377" /><path
       inkscape:connector-curvature="0"
       id="path142"
       style="fill:#000000;fill-opacity:1;fill-rule:nonzero;stroke:none"
       d="M 483.175,296.167 451.367,300.916 452.921,311.324 484.729,306.578 483.175,296.167" /><path
       inkscape:connector-curvature="0"
       id="path144"
       style="fill:#000000;fill-opacity:1;fill-rule:nonzero;stroke:none"
       d="M 444.606,318.468 444.272,328.985 485.174,330.27 485.504,319.754 444.606,318.468" /><path
       inkscape:connector-curvature="0"
       id="path146"
       style="fill:#000000;fill-opacity:1;fill-rule:nonzero;stroke:none"
       d="M 447.139,335.57 444.934,345.861 481.373,353.664 483.584,343.375 447.139,335.57" /><path
       inkscape:connector-curvature="0"
       id="path148"
       style="fill:#000000;fill-opacity:1;fill-rule:nonzero;stroke:none"
       d="M 438.054,350.043 434.048,359.775 473.469,376.003 477.473,366.275 438.054,350.043" /><path
       inkscape:connector-curvature="0"
       id="path150"
       style="fill:#000000;fill-opacity:1;fill-rule:nonzero;stroke:none"
       d="M 451.771,377.702 446.092,386.564 461.7,396.572 467.38,387.71 451.771,377.702" /><path
       inkscape:connector-curvature="0"
       id="path152"
       style="fill:#000000;fill-opacity:1;fill-rule:nonzero;stroke:none"
       d="M 416.963,372.96 409.789,380.668 446.441,414.706 453.608,407.002 416.963,372.96" /></g></svg>